<?xml version="1.0" standalone="no"?>
<!DOCTYPE svg PUBLIC "-//W3C//DTD SVG 20010904//EN"
 "http://www.w3.org/TR/2001/REC-SVG-20010904/DTD/svg10.dtd">
<svg version="1.0" xmlns="http://www.w3.org/2000/svg"
 width="1500.000000pt" height="1500.000000pt" viewBox="0 0 1500.000000 1500.000000"
 preserveAspectRatio="xMidYMid meet">
<metadata>
Created by potrace 1.11, written by Peter Selinger 2001-2013
</metadata>
<g transform="translate(0.000000,1500.000000) scale(0.100000,-0.100000)"
fill="#000000" stroke="none">
<path d="M435 12755 c-229 -42 -359 -167 -412 -395 -17 -71 -18 -288 -18
-4235 0 -4553 -5 -4225 61 -4361 59 -124 167 -208 324 -251 62 -17 368 -18
7115 -18 5969 0 7058 2 7105 14 203 51 331 183 372 381 11 53 13 813 13 4255
0 3982 -1 4193 -18 4255 -50 184 -146 286 -327 347 -53 17 -281 18 -7100 20
-5745 1 -7058 -1 -7115 -12z m9469 -735 c-35 -50 -48 -85 -64 -177 -18 -102
-38 -157 -69 -189 -17 -17 -101 -66 -187 -108 -179 -89 -213 -118 -293 -246
-65 -107 -90 -187 -100 -321 -11 -134 -26 -166 -112 -235 -128 -102 -148 -145
-149 -319 0 -120 11 -201 65 -492 31 -166 30 -167 -59 -278 -31 -38 -69 -95
-84 -125 -25 -52 -27 -63 -26 -185 0 -125 2 -134 41 -250 23 -66 57 -153 77
-194 l35 -73 -23 -37 c-112 -176 -174 -421 -163 -645 9 -198 65 -337 177 -438
103 -94 225 -138 380 -138 137 0 262 45 439 159 52 34 100 61 106 61 7 0 25
-19 40 -42 15 -24 50 -73 76 -109 27 -37 49 -71 49 -77 0 -16 -65 -70 -241
-203 -311 -233 -431 -351 -496 -487 -31 -64 -35 -79 -30 -127 7 -71 82 -219
272 -540 160 -271 225 -395 228 -440 2 -26 -4 -33 -53 -59 -100 -55 -489 -236
-845 -393 -571 -253 -848 -390 -1050 -521 -86 -55 -356 -260 -530 -402 -71
-58 -156 -127 -188 -153 l-58 -47 -3169 0 -3170 0 0 3935 0 3935 4128 2 c2270
2 4341 3 4603 3 l475 0 -32 -45z m1282 12 c43 -22 105 -57 136 -79 58 -41 157
-76 258 -91 42 -6 91 -3 200 14 80 13 155 23 167 24 67 1 272 -118 352 -205
51 -55 66 -120 52 -229 -10 -82 -26 -116 -67 -142 -44 -30 -69 -8 -124 110
-58 124 -95 160 -250 240 -223 115 -400 132 -400 37 0 -36 40 -73 141 -128
119 -66 156 -117 114 -159 -46 -46 -87 -33 -255 79 -107 73 -300 127 -449 127
-70 0 -86 -4 -151 -37 -80 -39 -201 -147 -275 -243 -52 -68 -71 -105 -80 -154
l-8 -38 -46 6 c-125 17 -163 18 -206 6 -114 -32 -169 -113 -191 -281 -9 -72
-20 -112 -38 -144 -59 -100 -166 -132 -230 -68 -53 53 -18 172 94 318 43 55
219 232 290 290 155 128 347 241 443 261 50 10 88 26 126 52 74 50 151 127
151 149 0 11 -13 31 -28 46 l-28 27 -166 0 c-177 0 -183 2 -171 50 10 38 188
144 323 193 8 3 65 6 126 6 108 1 112 0 190 -37z m2319 -74 c35 -16 34 -53 -3
-72 -61 -31 -224 -218 -300 -342 -47 -75 -75 -208 -56 -258 13 -34 39 -36 125
-10 119 35 320 67 377 58 225 -33 413 -214 362 -348 -13 -35 -32 -33 -77 7
-67 59 -154 82 -249 67 -71 -12 -110 -28 -205 -90 -110 -71 -222 -77 -301 -17
-53 41 -75 79 -89 153 -16 91 -18 95 -81 158 -95 93 -118 176 -82 297 44 151
127 243 287 319 112 53 210 89 244 90 12 0 34 -5 48 -12z m-1640 -771 c44 -14
134 -44 200 -67 149 -53 215 -58 485 -32 216 20 255 17 340 -26 78 -39 189
-152 229 -234 54 -108 60 -185 32 -382 -13 -90 -22 -186 -19 -213 6 -66 49
-156 135 -284 126 -188 152 -257 132 -362 -11 -65 -37 -125 -63 -146 -13 -11
-23 -8 -63 15 -121 70 -258 114 -352 114 -173 -1 -494 -136 -627 -265 -60 -58
-79 -108 -94 -246 -10 -105 -2 -176 45 -374 40 -172 41 -182 19 -397 -19 -189
-16 -257 15 -403 29 -132 22 -177 -38 -236 -98 -98 -247 -62 -264 63 -8 58
-48 141 -79 162 -38 27 -60 18 -140 -54 -42 -39 -81 -70 -86 -70 -5 0 -21 18
-36 40 -14 22 -33 40 -42 40 -48 0 -79 -55 -63 -113 16 -59 63 -113 124 -143
l57 -27 99 34 c92 32 101 33 126 19 15 -8 42 -42 62 -75 57 -98 89 -111 160
-65 56 35 108 39 211 14 126 -29 157 -22 199 46 16 27 55 67 86 90 34 25 73
66 96 103 36 56 39 65 33 107 -8 56 -17 73 -70 135 -24 28 -48 64 -54 80 -6
17 -15 98 -20 180 -6 90 -19 194 -33 260 -28 125 -25 141 31 150 74 12 83 16
95 42 11 24 8 29 -72 102 -66 61 -83 82 -83 105 0 35 36 73 105 110 72 39 87
32 87 -38 0 -199 238 -301 372 -159 37 39 68 114 75 179 6 54 7 55 32 49 36
-9 94 -57 105 -88 20 -55 -114 -248 -182 -263 -159 -34 -212 -53 -212 -74 0
-4 18 -15 39 -25 22 -10 42 -24 46 -33 3 -8 -6 -34 -20 -58 -14 -23 -25 -52
-25 -64 0 -33 44 -70 83 -70 74 0 260 119 314 201 23 35 28 54 31 132 3 74 9
101 29 139 29 54 43 62 78 46 38 -17 62 -64 75 -151 17 -102 9 -174 -36 -332
-34 -124 -36 -138 -40 -320 -5 -210 -27 -350 -70 -444 -70 -154 -277 -487
-359 -579 -63 -70 -89 -82 -174 -82 -66 0 -71 1 -91 30 -16 23 -24 53 -29 110
-8 90 -31 133 -75 138 -15 2 -63 -13 -115 -37 -58 -27 -95 -39 -107 -34 -11 4
-54 28 -98 55 -132 80 -173 76 -278 -27 -57 -57 -70 -65 -103 -65 -34 0 -45 8
-109 74 -102 107 -153 113 -246 31 -27 -24 -68 -49 -90 -55 -36 -10 -45 -8
-109 25 -56 28 -75 33 -94 26 -34 -13 -62 -52 -77 -107 -24 -85 14 -104 100
-50 62 39 57 40 155 -34 36 -28 73 -50 81 -50 8 0 64 17 123 37 l109 37 79
-27 c89 -31 108 -29 238 23 95 38 160 39 231 6 62 -29 84 -58 84 -109 0 -94
-96 -177 -205 -177 -25 0 -107 14 -183 31 -112 25 -151 30 -212 25 -179 -13
-255 -86 -154 -145 72 -42 107 -46 249 -23 195 31 325 11 414 -64 45 -37 61
-80 61 -158 0 -118 -82 -224 -217 -277 -55 -22 -73 -24 -323 -27 -250 -3 -269
-2 -322 18 -101 37 -286 163 -477 324 -129 108 -331 292 -378 343 l-42 47 5
-40 c6 -43 84 -208 164 -349 104 -181 220 -313 400 -456 179 -143 281 -201
445 -252 76 -24 124 -32 324 -57 94 -11 107 -18 116 -62 17 -75 -149 -323
-349 -524 -121 -122 -208 -184 -256 -184 -55 0 -234 111 -405 250 -92 75 -244
233 -328 342 -125 160 -294 458 -343 603 -23 70 -25 90 -20 155 8 89 79 362
143 550 l46 135 -60 135 c-107 239 -163 445 -170 632 -4 105 -9 141 -20 150
-16 13 -11 18 -96 -86 -45 -54 -77 -60 -142 -23 -81 46 -108 127 -109 322 -1
141 5 154 94 215 117 79 116 78 97 665 -10 291 -12 490 -7 524 13 77 25 110
98 266 115 249 122 272 122 443 0 81 7 187 15 237 48 299 196 515 430 631 119
59 210 80 466 109 261 29 372 27 484 -8z m1975 -403 c128 -41 174 -66 239
-134 61 -64 107 -142 149 -253 66 -176 79 -257 56 -339 -8 -28 -55 -22 -107
12 -60 40 -139 146 -218 293 -79 146 -125 205 -227 293 -92 80 -123 124 -103
148 21 25 88 19 211 -20z m-690 -1434 c172 -49 249 -152 200 -269 l-12 -31
-78 70 c-91 83 -116 90 -106 30 8 -54 -8 -59 -93 -32 -94 31 -139 28 -262 -14
-58 -21 -113 -34 -122 -31 -9 3 -19 17 -23 31 -10 43 16 77 91 115 52 27 74
44 84 68 16 36 56 57 151 77 72 15 65 16 170 -14z m-132 -324 c11 -11 24 -33
27 -48 6 -23 1 -34 -28 -63 -41 -41 -56 -43 -85 -12 -35 37 -44 74 -27 107 27
52 74 59 113 16z m-3722 -458 c2 -3 11 -39 19 -81 16 -86 29 -111 62 -126 66
-30 147 7 224 104 24 30 49 55 56 55 6 0 32 -9 57 -20 66 -28 63 -52 -21 -164
-107 -142 -188 -220 -256 -245 -131 -48 -214 -15 -278 110 -39 77 -32 181 21
323 l22 58 45 -5 c24 -2 46 -7 49 -9z m3286 -709 c50 -96 -12 -219 -110 -219
-44 0 -50 20 -22 87 20 49 22 65 16 140 l-6 85 52 -29 c34 -19 59 -42 70 -64z
m1180 -1205 c16 -59 79 -486 85 -577 5 -80 3 -105 -17 -168 -62 -205 -221
-460 -392 -626 -73 -71 -241 -179 -412 -263 -131 -65 -190 -80 -245 -60 -99
35 -233 160 -306 285 -73 126 -195 362 -195 379 0 8 10 26 23 40 18 22 43 30
147 51 160 31 208 48 387 136 410 202 689 460 798 740 14 35 37 76 52 91 24
25 29 26 47 15 11 -8 24 -27 28 -43z m-3052 -1142 c257 -354 402 -502 588
-599 191 -100 229 -139 327 -335 74 -148 74 -204 -1 -228 -53 -18 -112 -6
-217 42 -172 79 -271 149 -387 276 -170 184 -297 423 -416 778 -38 113 -44
141 -35 160 22 50 50 31 141 -94z m-634 -9 c18 -21 143 -205 277 -408 134
-204 291 -436 348 -515 180 -248 191 -266 187 -308 -3 -35 -5 -37 -40 -40 -53
-4 -118 28 -160 79 -85 104 -486 731 -617 965 -34 61 -71 135 -82 164 -18 48
-19 54 -4 76 22 34 53 30 91 -13z m3780 -89 c12 -66 -6 -243 -32 -324 -33 -97
-108 -237 -202 -375 -188 -275 -380 -456 -486 -455 -98 1 -266 158 -268 251
-2 47 33 71 161 112 128 41 217 90 316 174 146 123 335 378 394 533 36 96 54
120 87 120 19 0 24 -7 30 -36z m-1542 -165 c60 -71 70 -203 25 -339 -54 -164
-113 -222 -202 -198 -60 16 -87 6 -152 -54 -85 -77 -92 -118 -26 -153 39 -20
188 -45 267 -45 62 0 64 1 89 37 13 21 39 80 57 133 22 67 41 104 63 127 31
31 90 51 119 40 19 -7 103 -150 118 -199 31 -102 -92 -209 -332 -291 -86 -29
-214 -57 -262 -57 -50 0 -128 42 -175 92 -52 57 -127 210 -149 303 -30 132 -3
240 71 279 l39 20 105 -28 c153 -41 153 -41 189 -12 44 38 56 82 46 174 -9 91
-7 118 13 155 12 24 40 44 65 46 3 1 18 -13 32 -30z"/>
<path d="M11015 9551 c-176 -29 -317 -93 -408 -184 -100 -99 -147 -211 -147
-348 0 -75 12 -97 77 -142 35 -24 42 -25 80 -15 24 5 49 8 56 5 7 -3 30 -40
51 -83 56 -118 98 -154 176 -154 30 0 47 6 65 25 33 32 31 50 -4 64 -36 16
-87 68 -100 104 -24 63 -12 117 38 171 34 37 66 49 92 35 19 -10 20 -17 14
-83 -8 -84 3 -114 59 -163 40 -36 132 -73 179 -73 40 0 111 43 151 91 46 55
59 95 52 165 -5 50 -3 65 10 78 14 15 19 14 56 -6 50 -28 88 -72 88 -102 0
-12 -25 -65 -56 -116 -54 -88 -56 -94 -39 -107 41 -29 81 -15 164 59 30 26 63
48 73 48 54 0 42 -124 -21 -229 -53 -88 -64 -119 -57 -164 12 -75 148 -307
180 -307 44 0 57 154 27 326 -28 160 -26 211 9 384 16 80 30 159 30 176 0 54
-39 186 -66 221 -66 87 -334 267 -454 304 -73 23 -287 34 -375 20z m184 -130
c161 -59 256 -157 233 -243 -6 -26 -33 -22 -80 12 -32 23 -53 30 -88 30 -40 0
-45 -2 -39 -17 5 -10 10 -33 13 -50 l4 -33 -48 0 c-27 0 -80 -7 -119 -16 -38
-8 -82 -17 -97 -21 -27 -5 -28 -4 -28 41 0 44 -1 46 -29 46 -23 0 -47 -16
-105 -70 -87 -81 -123 -90 -167 -44 -51 55 -13 172 90 274 63 63 105 86 194
105 104 22 176 19 266 -14z m64 -379 c29 -25 23 -88 -12 -123 -36 -35 -64 -37
-96 -4 -18 17 -25 35 -25 63 0 47 16 70 55 81 34 9 52 5 78 -17z"/>
<path d="M3500 2906 c-106 -28 -176 -90 -202 -179 -16 -54 -16 -260 0 -313 17
-56 50 -103 97 -136 88 -62 -220 -58 4097 -58 2882 0 3961 3 4000 11 103 22
159 66 200 154 20 44 23 66 23 180 0 197 -33 267 -154 324 l-56 26 -3980 2
c-3118 1 -3990 -1 -4025 -11z"/>
</g>
</svg>
