<?xml version="1.0" encoding="UTF-8" standalone="no"?><!DOCTYPE svg PUBLIC "-//W3C//DTD SVG 1.1//EN" "http://www.w3.org/Graphics/SVG/1.1/DTD/svg11.dtd"><svg width="100%" height="100%" viewBox="0 0 1500 420" version="1.1" xmlns="http://www.w3.org/2000/svg" xmlns:xlink="http://www.w3.org/1999/xlink" xml:space="preserve" xmlns:serif="http://www.serif.com/" style="fill-rule:evenodd;clip-rule:evenodd;stroke-linejoin:round;stroke-miterlimit:1.41421;"><g id="TV"><path id="Standfuss-klein-weiß" serif:id="Standfuss klein weiß" d="M147.857,372.435c-7.681,0.119 -11.692,3.587 -11.789,11.045l-0.033,2.692c0.113,7.587 4.117,11.162 11.6,11.148l277.081,-0.02c7.274,-0.137 10.972,-3.805 11.009,-11.086l-0.027,-2.9c0.002,-7.494 -4.093,-10.749 -11.205,-10.883l-276.636,0.004Z" style="fill:#fff;"/><rect id="Bild-Verlauf" serif:id="Bild Verlauf" x="36.603" y="40.946" width="498.984" height="295.574" style="fill:url(#_Linear1);"/><path id="Goethe-Kopf-Hintergrund-weiss" serif:id="Goethe Kopf Hintergrund weiss" d="M366.527,335.663l-1.95,-46.259l10.145,-23.262l8.875,-40.379l-2.18,-19.249l-9.231,-12.705l-18.602,4.288l-17.369,-10.79l12.775,-33.736l12.566,-66.585l21.884,-22.322l14.859,-30.376l121.406,7.246l17.312,37.854l0,256.274l-170.49,0.001Z" style="fill:#fff;"/><path id="Goethe-Kopf" serif:id="Goethe Kopf" d="M424.682,151.055c-0.862,0 -3.146,-2.476 -4.009,-2.476l-2.31,0c-0.284,0.32 -0.233,-0.11 -0.233,0.752c0,0.862 0.69,0.891 0.69,1.753c0,0.862 -0.346,0.877 -0.404,1.351c-3.673,-0.477 -5.591,0.433 -9.875,1.392c-0.066,-1.17 -0.066,-2.201 -0.054,-3.169c-0.306,-0.29 -0.185,-0.237 -1.047,-0.237c-2.759,0 -4.828,5.174 -7.586,5.174c-2.069,0 -3.104,-1.896 -3.104,-3.104c0,-3.707 4.412,-8.951 8.033,-10.589c1.294,-0.56 3.141,-0.787 4.888,-1.134c2.844,-0.221 4.114,-0.147 5.203,0c3.641,0.866 10.843,3.921 10.843,8.62c0,0.863 -0.172,1.667 -1.035,1.667m-7.069,9.368c-2.5,0 -2.932,-1.982 -2.932,-3.103c0,-2.07 1.078,-3.105 3.104,-3.105c2.327,0 2.415,2.113 2.415,2.759c0,1.596 -1.207,3.449 -2.587,3.449m8.699,-21.965c-2.5,-1.293 -5.92,-1.483 -8.688,-1.83c-0.357,0 -0.679,0.347 -3.454,0c-13.551,0.82 -23.282,7.717 -23.282,19.657c0,0.819 -0.239,2.116 1.183,3.28c0.776,0.646 2.437,2.238 3.3,2.238c0.862,0 1.723,-0.69 2.586,-0.69c2.888,0 2.112,8.621 8.622,8.621c1.68,0 2.481,-0.267 3.602,-2.661c-3.782,-0.87 -5.5,-4.193 -5.5,-6.822c0,-1.379 2.199,-5.001 4.483,-5.001c0.863,0 0.863,0.345 1.085,0.294c-0.051,0.569 0.295,0.224 0.295,1.085c0,3.363 -1.763,3.913 1.857,7.749c0.862,0.905 4.738,2.597 6.246,2.597c3.104,0 7.198,-4.288 7.628,-7.391c0.173,-1.38 -1.411,-4.342 0.686,-5.027c0.976,-0.126 4.618,2.59 4.618,3.97c0,1.982 -2.69,5.21 -4.138,7.592c0,0 0.435,0.596 0.821,0.843c0.907,0.577 2.757,0.006 2.757,0.006c0.861,0.007 4.525,-4.131 5.388,-4.131c1.164,0 1.379,0.949 1.379,2.07c0,6.12 -4.139,6.854 -4.139,11.379c0,3.061 5.277,11.507 6.793,11.711c1.71,-2.342 1.484,-5.288 1.484,-7.055c0,-0.862 -1.72,-8.825 -1.724,-10.863c-0.006,-2.829 2.413,-12.415 2.413,-13.277c0,-1.638 -1.289,-6.963 -1.891,-7.696c-3.665,-4.44 -10.099,-8.449 -14.41,-10.648m100.557,-19.575c0,0 -0.135,0.828 -0.998,0.828c-2.069,0 -3.926,-1.616 -6.34,-4.547c-3.017,-3.707 -4.575,-8.499 -7.377,-12.422c-1.639,-2.242 -4.055,-4.309 -6.065,-6.106c-0.615,-0.549 -2.706,-1.888 -2.805,-3.134c-0.055,-0.704 0.094,-1.078 0.372,-1.302c0.555,-0.448 1.698,-0.422 2.559,-0.422c0.082,0 0.195,0.016 0.322,0.039c1.213,0.22 4.329,1.405 6.272,1.904c0.054,0.015 0.102,0.029 0.147,0.044c0.165,0.044 0.328,0.092 0.489,0.142c0.005,0.001 0.009,0.002 0.014,0.004l0,0c8.25,2.583 11.672,12.552 13.358,19.047c0.201,0.775 0.462,1.742 0.462,2.603c0,0.863 -0.032,1.876 -0.41,3.322m-15.157,169.251c-0.002,0.441 -0.177,0.443 -0.177,2.041l0,0.001c0,0.162 -0.003,0.327 -0.013,0.492c-0.003,0.054 -0.005,0.109 -0.009,0.163c-0.008,0.113 -0.016,0.226 -0.027,0.34c-0.006,0.064 -0.013,0.128 -0.02,0.192c-0.012,0.107 -0.026,0.214 -0.04,0.321c-0.009,0.067 -0.018,0.133 -0.029,0.199c-0.016,0.111 -0.034,0.221 -0.054,0.332c-0.01,0.062 -0.021,0.125 -0.032,0.187c-0.024,0.131 -0.051,0.263 -0.079,0.395c-0.009,0.042 -0.016,0.084 -0.025,0.126c-0.038,0.171 -0.077,0.343 -0.12,0.515c-0.014,0.06 -0.031,0.121 -0.046,0.181c-0.029,0.115 -0.059,0.229 -0.09,0.344c-0.02,0.075 -0.042,0.15 -0.063,0.224c-0.029,0.102 -0.058,0.203 -0.088,0.305c-0.024,0.078 -0.048,0.157 -0.072,0.236c-0.031,0.098 -0.062,0.197 -0.093,0.295c-0.026,0.08 -0.052,0.16 -0.079,0.241c-0.032,0.097 -0.065,0.194 -0.099,0.291c-0.028,0.08 -0.054,0.16 -0.083,0.24c-0.04,0.113 -0.081,0.226 -0.123,0.339c-0.054,0.146 -0.109,0.292 -0.165,0.438c-0.029,0.076 -0.058,0.153 -0.088,0.229c-0.041,0.103 -0.082,0.205 -0.123,0.307c-0.028,0.068 -0.055,0.136 -0.083,0.204c-0.043,0.106 -0.087,0.211 -0.131,0.316c-0.026,0.062 -0.053,0.125 -0.079,0.187c-0.047,0.11 -0.094,0.22 -0.142,0.329c-0.022,0.049 -0.043,0.097 -0.065,0.146c-0.121,0.274 -0.244,0.547 -0.369,0.816c-0.001,0.001 -0.002,0.001 -0.002,0.002c-0.925,1.984 -1.945,3.809 -2.768,5.228c-1.941,3.362 -13.125,20.561 -20.366,20.561c-4.095,0 -9.483,-6.38 -9.483,-9.139c0,-2.025 2.843,-2.925 4.61,-3.398c1.768,-0.475 3.552,-1.026 5.147,-1.716c8.551,-3.86 14.879,-12.255 19.605,-19.959c0.109,-0.179 0.218,-0.357 0.326,-0.535c0.071,-0.117 0.142,-0.234 0.213,-0.351c1.101,-1.831 2.034,-6.271 2.987,-6.819c0.551,-0.316 0.838,-0.497 1.557,-0.473c0.715,0.022 0.831,1.032 0.833,1.886c0.001,0.389 -0.021,0.746 -0.021,0.963c0.049,1.829 0.07,2.436 0.068,2.778m-47.267,4.759c-0.131,-0.17 -0.247,-0.328 -0.345,-0.472c-0.275,-0.403 -0.541,-0.809 -0.799,-1.217c-1.413,-2.241 -2.584,-4.546 -3.697,-6.711c-0.308,-0.598 -0.612,-1.188 -0.914,-1.759c-0.21,-0.396 -0.447,-0.834 -0.692,-1.291c-0.082,-0.152 -0.165,-0.306 -0.248,-0.462c-0.167,-0.31 -0.335,-0.625 -0.5,-0.938c-0.082,-0.156 -0.163,-0.311 -0.243,-0.466c-0.718,-1.386 -1.31,-2.646 -1.31,-3.131c0,-0.324 0.092,-0.633 0.243,-0.918c0.075,-0.142 0.164,-0.278 0.264,-0.407c0.316,-0.408 0.733,-0.736 1.113,-0.943c0.219,-0.12 0.426,-0.201 0.593,-0.231c0.345,-0.043 8.451,-1.367 11.339,-2.617c2.054,-0.889 4.209,-1.885 6.401,-2.99c0.22,-0.11 0.439,-0.222 0.659,-0.335c0.66,-0.338 1.322,-0.686 1.986,-1.043c0.663,-0.358 1.328,-0.726 1.992,-1.104c0.443,-0.251 0.885,-0.508 1.326,-0.768c0.221,-0.131 0.442,-0.262 0.662,-0.395c0.661,-0.397 1.319,-0.805 1.974,-1.223c3.927,-2.507 7.707,-5.377 10.969,-8.624c0.362,-0.36 0.718,-0.726 1.068,-1.096c0.698,-0.74 1.369,-1.499 2.007,-2.277c0.64,-0.777 1.247,-1.574 1.819,-2.389c0.428,-0.612 0.837,-1.234 1.224,-1.867c1.289,-2.11 2.336,-4.339 3.077,-6.69c0.038,-0.124 0.081,-0.245 0.131,-0.364c0.149,-0.356 0.353,-0.691 0.62,-1.006c0.266,-0.315 0.594,-0.61 0.993,-0.89c0.133,-0.093 0.273,-0.184 0.422,-0.274c0.067,0.024 0.131,0.046 0.193,0.068c0.123,0.043 0.236,0.084 0.34,0.124c0.052,0.02 0.102,0.04 0.149,0.061c0.572,0.246 0.838,0.552 1.062,1.607c0.31,1.455 0.628,3.202 0.937,5.07c0.571,3.45 1.114,7.311 1.529,10.505c0.034,0.266 0.068,0.527 0.101,0.784c0.278,2.178 0.488,3.976 0.594,5.009c0.012,0.122 0.023,0.233 0.032,0.332c0.005,0.05 0.01,0.097 0.014,0.142c0.02,0.221 0.03,0.37 0.03,0.437c0,3.718 -3.014,10.204 -4.954,13.629c-0.129,0.228 -0.254,0.443 -0.373,0.642c-0.635,1.056 -1.415,2.272 -2.293,3.551c-0.439,0.64 -0.903,1.295 -1.385,1.954c-0.845,1.153 -1.746,2.319 -2.676,3.431c-0.531,0.635 -1.071,1.253 -1.614,1.842c-0.271,0.294 -0.544,0.581 -0.816,0.859c-0.273,0.278 -0.545,0.548 -0.817,0.807c-0.136,0.129 -0.272,0.256 -0.407,0.38c-0.271,0.249 -0.541,0.485 -0.81,0.71c-0.268,0.225 -0.535,0.437 -0.799,0.634c-0.1,0.075 -0.392,0.278 -0.836,0.577c-0.443,0.299 -1.039,0.692 -1.747,1.149c-0.177,0.115 -0.361,0.233 -0.552,0.355c-0.953,0.608 -2.067,1.303 -3.266,2.021c-0.24,0.144 -0.483,0.289 -0.729,0.434c-1.476,0.87 -3.052,1.756 -4.596,2.549c-1.545,0.793 -3.058,1.493 -4.408,1.991c-1.125,0.416 -2.136,0.691 -2.958,0.764c-3.502,0.31 -9.101,-4.966 -11.079,-7.52m-15.818,32.349c-7.79,0 -11.875,-12.376 -12.218,-17.303c0,-0.006 0,-0.009 0,-0.014c-0.011,-0.161 0.041,-0.313 0.038,-0.457c-0.001,-0.05 0.057,-0.1 0.057,-0.157l0,0l0,-0.001c0,-3.923 1.708,-6.552 5.286,-6.552c0.861,0 6.522,2.069 7.383,2.069c3.234,0 4.124,-3.535 4.124,-5.345c0,-0.675 -0.457,-2.507 -0.631,-3.686c-0.048,-0.329 -0.08,-0.61 -0.07,-0.798c0.129,-2.305 1.47,-4.32 3.001,-4.31c2.649,0.736 3.352,6.121 3.352,7.931l0,0.001c0,0.085 -0.077,0.177 -0.081,0.273c-0.001,0.024 -0.04,0.05 -0.041,0.075c-0.005,0.079 -0.029,0.16 -0.035,0.246c-0.002,0.022 -0.013,0.044 -0.015,0.067c-0.228,2.697 -1.712,8.306 -4.215,10.658l-0.002,0c-0.788,0.78 -1.675,1.263 -2.659,1.263c-0.863,0 -2.067,-0.857 -2.929,-0.857c-2.069,0 -6.38,4.31 -6.38,5.689c0,2.673 4.909,3.111 8.463,3.608c1.838,0.258 4.761,0.017 4.761,0.017c2.972,-2.327 2.641,-6.571 4.656,-9.752c0.184,-0.332 0.387,-0.597 0.615,-0.843c0.199,-0.237 0.414,-0.418 0.653,-0.637c0.684,-0.311 1.355,-0.412 2.699,-0.733l1.163,0c0.13,0 4.233,6.406 4.233,8.044c0,7.501 -17.975,11.504 -21.208,11.504m-18.467,-3.14c-1.855,0 -7.149,-2.606 -8.7,-3.382c-5.131,-2.658 -9.322,-6.438 -12.786,-10.781l-0.002,0c-0.015,-0.02 -0.03,-0.041 -0.046,-0.061c-6.17,-7.762 -10.018,-17.316 -12.706,-25.538c-0.021,-0.066 -0.042,-0.131 -0.064,-0.196c-0.146,-0.451 -0.289,-0.897 -0.43,-1.339c-0.051,-0.162 -0.102,-0.323 -0.152,-0.483c-0.122,-0.388 -0.241,-0.772 -0.358,-1.153c-0.034,-0.108 -0.069,-0.22 -0.102,-0.327c0,0 -0.123,-0.518 -0.136,-1.097c-0.013,-0.58 0.085,-1.22 0.526,-1.467c0.541,-0.303 1.588,-0.01 1.588,-0.01c7.383,9.693 14.346,20.978 24.692,25.935c1.982,0.949 4.401,1.974 5.91,3.484c2.069,2.111 7.076,10.207 7.076,13.311c0,3.018 -3.363,3.104 -4.31,3.104m-23.989,3.326c-0.314,0.303 -0.151,0.467 -1.013,0.467c-0.862,0 -3.327,0.193 -5.436,-1.88c-0.728,-0.715 -5.559,-7.833 -10.858,-16.076l-0.002,0c-0.047,-0.074 -0.094,-0.148 -0.14,-0.221c-6.195,-9.644 -12.98,-20.753 -14.587,-24.949c-0.001,-0.004 -0.002,-0.007 -0.004,-0.011c-0.048,-0.127 -0.092,-0.247 -0.131,-0.361c-0.011,-0.034 -0.023,-0.068 -0.033,-0.101c-0.028,-0.084 -0.051,-0.163 -0.073,-0.239c-0.011,-0.04 -0.023,-0.082 -0.033,-0.121c-0.018,-0.067 -0.03,-0.129 -0.042,-0.189c-0.006,-0.034 -0.015,-0.07 -0.02,-0.102c-0.013,-0.082 -0.079,-0.157 -0.08,-0.223c0,-0.003 -0.061,-0.008 -0.061,-0.011l0,-0.001l0,-0.001c0,-0.862 0.922,-2.069 1.784,-2.069c2.069,0 5.909,7.064 6.772,8.445c0.689,1.12 7.517,10.951 9.328,14.056c0.042,0.07 0.093,0.143 0.136,0.215c0.031,0.053 0.067,0.106 0.099,0.159c4.014,6.648 14.413,19.946 14.405,20.792c0,0 0.668,1.766 -0.011,2.421m-110.921,-17.489c-17.331,12.762 -27.171,21.813 -39.177,31.938l280.944,0.448l0,-306.037l-148.093,0c0,0 -7.1,3.63 -9.559,6.627c-2.573,3.136 -7.096,6.236 -8.975,9.988c-1.693,3.382 -1.041,9.355 -3.918,11.809c-3.556,3.033 -10.979,4.418 -14.325,8.592c-3.347,4.173 -6.193,8.841 -6.11,15.471c0.11,8.83 -5.986,6.504 -8.864,13.723c-0.621,1.56 -0.447,5.849 -0.447,5.849c-0.025,7.958 2.097,13.637 3.104,21.122c0.987,7.333 -15.457,6.869 -1.38,35.176c-10.209,15.286 -11.15,44.658 13.449,44.658c9.814,0 17.394,-8.064 19.391,-7.959c1.756,2.818 3.778,5.488 5.783,8.131c-0.222,2.847 -27.98,17.664 -27.588,28.968c0.206,5.937 17.531,29.951 17.932,34.83l0.399,1.08c-27.81,14.592 -54.722,23.08 -72.566,35.586m59.253,-128.229c3.88,0 7.241,-6.207 7.759,-6.207c0.863,0 2.456,1.04 3.948,1.446c0,0 0.273,0.657 0,1.787c-0.244,1.007 -7.451,9.915 -8.701,10.76c-0.559,0.378 -1.689,0.952 -2.767,1.382c-1.293,0.561 -3.17,0.834 -4.032,0.834c-4.137,0 -6.897,-5.691 -6.897,-8.278c0,-2.974 1.18,-7.14 2.493,-9.973c0.956,-0.027 2.154,-0.11 3.283,0.427c1.348,1.86 0.008,5.609 2.736,7.36c0.658,0.12 1.316,0.462 2.178,0.462m13.259,-84.656c0,-0.215 0.006,-0.42 0.02,-0.619c0.013,-0.199 0.034,-0.393 0.061,-0.586c0.056,-0.388 0.142,-0.776 0.263,-1.209c0.233,-0.831 2.15,-4.505 3.572,-6.316c0.366,-0.463 0.743,-0.923 1.125,-1.381c0.038,-0.046 0.076,-0.091 0.114,-0.136c4.222,-5.035 9.408,-9.713 15.099,-13.503l0.005,0c2.396,-1.629 4.879,-3.129 7.42,-4.466c1.509,-0.775 3.932,-0.65 5.527,-1.383c0.862,-0.388 7.14,-4.584 7.14,-6.61c0,-0.863 -1.606,-2.251 -2.61,-2.589c0,0 -10.243,0.456 -11.132,0.297c-0.156,-0.14 -0.396,-0.468 -0.396,-1.33c0,-1.638 2.179,-2.541 3.15,-3.288c2.672,-2.057 9.608,-4.988 12.368,-4.988c0.862,0 2.241,0.344 3.103,0.344c0.862,0 4.961,1.749 6.814,2.872c1.552,0.947 3.205,2.486 5.145,3.218c2.544,0.992 7.352,1.842 8.214,1.842c1.508,0 10.561,-1.724 10.691,-1.724c3.534,0 11.345,5.028 13.802,8.347c0.819,1.12 1.198,3.551 1.198,4.413c0,0.862 -0.345,3.276 -0.345,4.138c0,0.325 -0.089,0.69 -0.239,1.064c-0.491,1.303 -1.671,2.582 -2.771,2.957c-0.007,0.003 -0.014,0.005 -0.02,0.007c-0.074,0.025 -0.147,0.045 -0.22,0.061c-0.036,0.008 -0.072,0.017 -0.108,0.023c-0.041,0.007 -0.082,0.008 -0.122,0.012c-0.046,0.004 -0.094,0.014 -0.14,0.014c-1.898,0 -4.138,-7.342 -4.741,-7.989c-3.147,-3.535 -12.976,-8.564 -18.019,-8.564c-0.432,0 -3.621,0.215 -3.621,2.069c0,3.88 10.001,5.432 10.001,9.311c0,1.251 -2.07,2.07 -2.76,2.07c-2.37,0 -8.425,-5.013 -9.546,-5.444c-3.363,-1.336 -7.212,-2.147 -10.637,-2.834c-4.165,-0.098 -4.817,0.001 -5.14,-0.001c-5.927,1.549 -10.779,6.933 -14.624,12.345c-0.97,1.366 -0.916,4.555 -1.778,4.555c-0.862,0 -4.31,-1.035 -5.173,-1.035c-7.327,0 -10.129,5.087 -10.129,11.553c0,1.81 -0.904,3.862 -2.11,5.284c-0.905,1.077 -3.451,2.474 -4.313,2.474c-2.5,0 -4.138,-1.896 -4.138,-3.275Zm94.21,98.834c3.705,1.445 5.104,2.509 5.104,6.001c0,2.759 -2.156,5 -4.655,5c-0.862,0 -0.891,0.003 -1.212,-0.374c-0.395,-0.466 0.03,-1.566 0.03,-1.566c-0.025,-0.862 1.365,-2.371 1.354,-3.232c-0.021,-1.572 -0.343,-2.568 -0.621,-5.829m20.967,-36.071c0.046,1.369 -1.898,2.931 -2.759,2.931c-1.595,0 -2.718,-2.048 -2.759,-3.448c-0.021,-0.689 0.992,-2.759 2.241,-2.759c1.983,0 3.231,1.897 3.277,3.276m4.136,-5.49c-0.393,0.438 -0.343,0.834 -1.205,0.834c-0.517,0 -4.138,-1.724 -6.208,-1.724c-3.62,0 -8.276,2.758 -9.31,2.758c-0.862,0 -1.552,-1.034 -1.552,-1.896c0,-4.138 6.552,-3.103 6.552,-6.208c0,-1.594 4.181,-2.24 4.31,-2.24c0.863,0 2.587,-0.69 3.449,-0.69c0.862,0 1.658,0.648 2.778,0.777c2.933,0.344 8.429,3.188 8.429,6.982c0,0.862 -0.363,2.569 -1.179,4.042c-1.529,-1.428 -3.242,-3.497 -5.259,-5.101l-0.923,0c-0.275,0 -0.569,-0.242 -0.569,0.62c0,0.863 0.326,1.051 0.687,1.846m-0.129,-56.607c0.172,1.336 0.475,3.127 0.475,3.989c0,0.862 -1.724,10.519 -1.724,11.38c0,8.924 10,14.915 10,22.76c0,2.242 -1.137,6.124 -2.89,7.582c-1.2,-0.258 -3.776,-2.338 -4.594,-2.683c-2.674,-1.25 -8.033,-2.485 -8.896,-2.485c-8.534,0 -19.235,5.515 -23.933,9.954c-2.328,2.199 -2.792,8.884 -2.792,11.427c0,6.165 3.105,11.855 3.105,17.76c0,0.862 -1.046,12.13 -1.165,12.429c0.127,0.644 0.129,1.695 0.215,2.758c-0.091,0.374 -0.085,-0.013 -0.085,0.848c0,0.863 1.724,6.898 1.724,7.76c0,4.138 -2.544,7.415 -6.897,7.415c-2.069,0 -4.482,-1.725 -4.482,-3.794c0,-2.199 -1.728,-5.715 -3.021,-6.491c-0.56,-0.345 -0.945,-0.406 -1.808,-0.406c-0.862,0 -3.87,3.764 -6.026,5.173c-1.771,-0.927 -1.158,-3.026 -2.925,-3.026c-2.414,0 -2.428,2.81 -2.428,3.026c0,3.017 3.88,6.897 7.069,6.897c0.862,0 5.543,-2.16 6.404,-2.16c2.587,0 4.065,4.718 4.497,5.15c0.775,0.818 2.031,1.327 2.892,1.327c0.863,0 2.931,-2.306 3.794,-2.306c2.888,0 4.49,0.605 7.999,1.277c1.439,0.276 2.998,0.449 4.181,-1.567c0.744,-1.27 0.632,-1.38 1.34,-2.315c0.86,-0.735 1.355,-1.328 2.389,-1.716c1.078,-0.43 4.321,-4.544 4.321,-5.966c0,-7.027 -5.117,-4.829 -5.117,-12.545l0,-5.259c0,-0.861 -2.125,-9.612 -2.125,-10.475c0,-3.06 5.489,-0.215 5.489,-3.793c0,-1.38 -5.876,-4.613 -5.876,-6.553c0,-2.456 5.501,-4.905 6.425,-5.163c0.905,1.183 0.461,0.767 0.461,1.888c0,3.275 1.276,7.078 5.977,8.496c0.39,0.118 1.951,0.298 2.814,0.298c0.862,0 2.78,-0.826 4.03,-1.817c2.069,-1.638 3.602,-6.037 3.134,-8.415c0,0 -0.267,-0.459 0.594,-0.459c2.069,0 4.482,2.716 4.482,3.622c0,2.628 -4.274,8.487 -6.688,9.005c-2.413,0.517 -4.795,0.808 -7.128,1.779c-0.643,0.876 0,1.211 0,1.211c1.625,1.006 2.782,0.72 2.782,2.143c0,0.862 -1.724,2.414 -1.724,3.277c0,2.543 1.853,3.103 2.758,3.103c3.017,0 10.318,-4.555 11.955,-8.176c0.733,-1.595 0.459,-4.929 0.459,-5.791c0,-1.466 1.816,-4.411 2.26,-4.636c1.242,-0.629 3.296,0.886 3.813,2.869c0.431,1.724 0.824,5.044 0.824,5.905c0,6.294 -3.405,10.941 -3.103,17.234c0.301,5.517 -0.346,9.321 -0.346,10.182c0,0.863 -0.868,4.748 -1.514,7.119c-0.258,0.949 -12.581,24.615 -17.322,24.615l-4.095,0c-0.862,0 -0.94,-0.614 -1.415,-1.089c-0.56,-0.56 -0.957,-1.847 -0.957,-2.882c0,-1.035 0.311,-2.062 0.008,-3.053c-0.344,-1.078 -1.601,-2.984 -2.464,-2.984c-3.535,0 -5.603,2.758 -7.587,2.758c-1.939,0 -5.431,-4.138 -8.965,-4.138c-4.354,0 -5.389,5.519 -8.449,5.519c-3.75,0 -4.138,-5.863 -8.965,-5.863c-4.095,0 -3.578,4.138 -8.449,4.138c-0.862,0 -3.944,-2.268 -4.807,-2.268c-3.449,0 -3.889,5.257 -4.15,5.868c0.606,0.255 0.852,1.248 1.715,1.248c0.861,0 3.542,-2.517 4.405,-2.517c0.862,0 4.981,4.141 6.344,4.18c1.551,0.044 7.198,-2.612 8.06,-2.612c0.862,0 4.586,1.792 5.448,1.792c3.75,0 7.209,-2.933 10.4,-2.933c2.543,0 6.897,1.767 6.897,4.484c0,4.957 -4.871,6.897 -8.104,6.897c-0.863,0 -10.173,-2.414 -11.036,-2.414c-1.81,0 -9.483,0.474 -9.483,3.449c0,2.068 5.132,3.493 6.036,3.448c1.857,-0.095 7.931,-1.38 8.793,-1.38c4.827,0 12.759,1.101 12.759,8.214c0,8.146 -8.405,11.316 -14.01,11.316l-13.447,0c-8.881,0 -31.794,-22.736 -33.81,-24.446c0,0 -0.678,-0.914 -1.441,-2.052c0.237,1.295 0.445,2.567 0.445,2.95c0,0.863 1.879,4.199 2.828,6.138c2.111,4.268 4.894,8.982 7.91,12.732c3.535,4.441 10.563,10.096 15.262,13.156c6.207,4.009 14.305,6.137 20.727,6.181c1.034,0 2.291,0.267 3.76,0.72c0.513,0.639 0.895,1.263 0.895,2.126c0,0.158 -0.016,0.33 -0.047,0.515c-0.945,5.735 -16.161,24.142 -21.506,24.142c-2.975,0 -6.824,-3.41 -9.427,-5.102c-8.098,-5.265 -16.455,-14.466 -21.325,-22.571c-1.375,-2.312 -3.656,-6.098 -5.493,-9.831c-0.215,-0.439 -0.425,-0.877 -0.627,-1.312c-0.504,-1.088 -0.956,-2.156 -1.321,-3.164c-0.073,-0.202 -0.143,-0.402 -0.208,-0.598c-0.461,-1.378 -0.738,-2.624 -0.738,-3.633c0,-0.161 0.011,-0.371 0.031,-0.612c0.013,-0.16 0.03,-0.334 0.049,-0.516c0.083,-0.818 0.207,-1.8 0.25,-2.454c0.009,-0.146 0.015,-0.275 0.015,-0.383c0,-0.107 0.048,-0.364 0.133,-0.731c0.149,-0.642 0.408,-1.625 0.715,-2.75c0.175,-0.642 0.365,-1.331 0.558,-2.029c0.097,-0.349 0.194,-0.701 0.291,-1.05c0.338,-1.222 0.667,-2.415 0.921,-3.382c0.11,-0.414 0.205,-0.786 0.281,-1.102c0.026,-0.105 0.05,-0.203 0.071,-0.295c0.085,-0.367 0.133,-0.623 0.133,-0.731c0,-0.026 0.004,-0.059 0.01,-0.098c0.002,-0.014 0.005,-0.031 0.008,-0.045c0.005,-0.029 0.011,-0.058 0.019,-0.093c0.004,-0.02 0.01,-0.043 0.016,-0.064c0.008,-0.035 0.017,-0.071 0.028,-0.11c0.006,-0.025 0.014,-0.052 0.021,-0.079c0.012,-0.041 0.024,-0.084 0.038,-0.13c0.008,-0.029 0.018,-0.059 0.027,-0.09c0.015,-0.049 0.03,-0.099 0.047,-0.151c0.01,-0.032 0.02,-0.066 0.031,-0.099c0.018,-0.056 0.037,-0.114 0.056,-0.174c0.012,-0.033 0.023,-0.067 0.034,-0.101c0.022,-0.066 0.045,-0.134 0.068,-0.204c0.011,-0.032 0.022,-0.065 0.034,-0.098c0.026,-0.077 0.054,-0.156 0.082,-0.237c0.01,-0.029 0.019,-0.057 0.03,-0.086c0.033,-0.095 0.067,-0.193 0.103,-0.293c0.005,-0.017 0.011,-0.032 0.017,-0.049c0.886,-2.495 2.375,-6.319 2.71,-7.603c-0.054,-0.14 -0.084,-0.253 -0.084,-0.332c0,-0.861 -1.841,-3.903 -2.66,-5.971c-0.517,-1.293 -1.165,-2.43 -1.731,-4.157c-0.319,-0.973 -3.307,-10.395 -3.911,-15.214c-0.293,-2.335 1.119,-6.867 -0.82,-7.42c-1.792,0.628 -3.163,5.173 -5.534,5.173c-0.862,0 -3.844,-1.447 -4.189,-1.921c-0.604,-0.776 -1.498,-2.315 -1.756,-3.737c-0.432,-2.371 -0.779,-6.756 -0.779,-7.618c0,-9.225 6.897,-4.021 7.586,-13.798l-1.034,-32.584c0,-7.803 5.825,-13.923 8.022,-22.63c0.389,-1.639 -0.092,-4.786 -0.092,-5.648c0,-18.708 9.472,-32.373 28.439,-33.71c4.44,-0.301 12.942,-1.465 13.805,-1.465c9.311,0 14.742,5.517 23.276,5.517c0.863,0 14.656,-1.379 15.519,-1.379c5.603,0 13.748,7.175 14.697,13.943m-8.907,-28.182c1.219,-5.103 2.731,-8.173 6.68,-11.149c1.169,-0.88 10.16,-5.304 12.876,-5.304c0.862,0 1.361,0.141 2.134,0.703c0.401,0.382 0.494,0.576 0.474,1.01c-0.018,0.398 -0.102,0.675 -0.474,0.904c-3.46,1.107 -11.614,12.068 -12.308,14.109c-0.704,2.073 -1.378,4.998 -1.379,5.862c0.001,1.421 0.647,2.931 1.897,2.931c0.862,0 3.801,-1.289 5.483,-1.635c0.092,-0.019 0.188,-0.039 0.284,-0.058c0.005,-0.001 0.011,-0.01 0.017,-0.011c0.1,-0.021 0.202,-0.069 0.306,-0.069l0,0c1.257,-0.321 2.77,-0.505 4.191,-0.733c0.008,-0.001 0.016,0.001 0.024,0c0.329,-0.053 0.652,-0.101 0.965,-0.149c0.036,-0.006 0.072,-0.011 0.108,-0.016c0.091,-0.014 0.182,-0.027 0.272,-0.041c0.047,-0.007 0.093,-0.013 0.139,-0.02c0.132,-0.02 0.261,-0.039 0.387,-0.057c0.066,-0.01 0.131,-0.019 0.195,-0.029c0.062,-0.009 0.124,-0.017 0.184,-0.026c0.082,-0.011 0.162,-0.023 0.241,-0.034c0.066,-0.009 0.13,-0.018 0.194,-0.026c0.083,-0.012 0.165,-0.023 0.244,-0.033c0.022,-0.003 0.046,-0.007 0.068,-0.01l0,0.001c0.743,-0.098 1.296,-0.157 1.526,-0.157c5.518,0 14.656,5.086 14.656,10.345c0,0.862 -0.032,2.048 -0.769,3.074c-0.708,0.984 -2.547,-1.772 -3.601,-2.308c-0.574,-0.292 -1.325,-0.565 -2.089,-0.796c-0.03,-0.009 -0.06,-0.018 -0.09,-0.027c-0.102,-0.03 -0.204,-0.059 -0.306,-0.088c-0.014,-0.004 -0.029,-0.008 -0.043,-0.013c-0.115,-0.032 -0.23,-0.062 -0.343,-0.092c-0.027,-0.007 -0.055,-0.014 -0.082,-0.021c-0.096,-0.025 -0.191,-0.049 -0.285,-0.072c-0.02,-0.004 -0.04,-0.009 -0.06,-0.014c-0.11,-0.027 -0.218,-0.052 -0.323,-0.075c-0.023,-0.005 -0.045,-0.01 -0.068,-0.015c-0.089,-0.02 -0.177,-0.039 -0.262,-0.056c-0.02,-0.004 -0.041,-0.009 -0.061,-0.012c-0.1,-0.021 -0.197,-0.039 -0.29,-0.056c-0.015,-0.003 -0.03,-0.005 -0.044,-0.008c-0.08,-0.014 -0.155,-0.026 -0.228,-0.038c-0.02,-0.003 -0.04,-0.006 -0.06,-0.009c-0.083,-0.013 -0.162,-0.024 -0.236,-0.033c-0.007,-0.001 -0.013,-0.001 -0.021,-0.002c-0.066,-0.008 -0.126,-0.014 -0.184,-0.019c-0.015,-0.001 -0.03,-0.002 -0.045,-0.003c-0.061,-0.004 -0.117,-0.007 -0.166,-0.007c-8.362,0 -9.354,5.518 -15.173,5.518c-0.808,0 -1.541,-0.014 -2.249,-0.137c-0.142,-0.025 -0.283,-0.054 -0.423,-0.088c-0.14,-0.034 -0.28,-0.072 -0.419,-0.117c-0.07,-0.023 -0.14,-0.047 -0.209,-0.072c-0.14,-0.051 -0.279,-0.108 -0.419,-0.172c-0.49,-0.224 -0.985,-0.533 -1.504,-0.959c-0.592,-0.487 -1.215,-1.127 -1.894,-1.968c-0.948,-1.156 -0.989,-2.918 -1.287,-4.649c-0.135,-0.786 -0.323,-1.567 -0.674,-2.281c-0.56,-1.163 -2.348,-2.034 -3.211,-3.068c-0.818,-0.992 -1.714,-2.479 -2.102,-3.858c-0.259,-0.992 -0.506,-2.337 -0.164,-3.767" style="fill:#1e1e1f;fill-rule:nonzero;"/><path id="Rahmen-weiß" serif:id="Rahmen weiß" d="M19.64,44.322c-0.126,-14.232 6.74,-21.638 21.196,-21.632l491.7,-0.009c13.294,-0.051 19.764,7.015 19.724,20.873l-0.024,287.853c0.07,13.416 -6.436,20.744 -20.691,20.895l-490.834,-0.022c-14.492,-0.191 -21.112,-7.556 -21.211,-20.867l0.14,-287.091Zm507.734,282.919l0,-279.689l-482.131,0.039l0,279.65l482.131,0Z" style="fill:#fff;"/></g><g id="Schrift"><text id="Slogan-weiß" serif:id="Slogan weiß" x="602.196px" y="313.357px" style="font-family:'OpenSans-SemiBold', 'Open Sans SemiBold', sans-serif;font-weight:600;font-size:63.183px;fill:#fff;">Behind the Scenes of Science</text><text id="RoedbergTV-weiß" serif:id="RoedbergTV weiß" x="601.823px" y="204.105px" style="font-family:'Bitter-Regular', 'Bitter';font-size:158.178px;fill:#fff;">RiedbergTV</text></g><defs><linearGradient id="_Linear1" x1="0" y1="0" x2="1" y2="0" gradientUnits="userSpaceOnUse" gradientTransform="matrix(1.80987e-14,-295.574,295.574,1.80987e-14,286.096,336.52)"><stop offset="0" style="stop-color:#50f3bf;stop-opacity:1"/><stop offset="1" style="stop-color:#38aad9;stop-opacity:1"/></linearGradient></defs></svg>