<?xml version="1.0" encoding="UTF-8" standalone="no"?><!DOCTYPE svg PUBLIC "-//W3C//DTD SVG 1.1//EN" "http://www.w3.org/Graphics/SVG/1.1/DTD/svg11.dtd"><svg width="100%" height="100%" viewBox="0 0 400 281" version="1.1" xmlns="http://www.w3.org/2000/svg" xmlns:xlink="http://www.w3.org/1999/xlink" xml:space="preserve" xmlns:serif="http://www.serif.com/" style="fill-rule:evenodd;clip-rule:evenodd;stroke-linejoin:round;stroke-miterlimit:1.41421;"><g id="TV"><path id="Standfuss-klein" serif:id="Standfuss klein" d="M96.268,262.316c-5.761,0.089 -8.769,2.69 -8.842,8.284l-0.024,2.019c0.084,5.69 3.087,8.371 8.7,8.36l207.81,-0.014c5.456,-0.103 8.229,-2.854 8.257,-8.315l-0.021,-2.175c0.002,-5.62 -3.069,-8.061 -8.403,-8.162l-207.477,0.003Z" style="fill:#1e1e1f;"/><rect id="Bild-Verlauf" serif:id="Bild Verlauf" x="12.828" y="13.699" width="374.238" height="221.68" style="fill:url(#_Linear1);"/><path id="Goethe-Kopf-Hintergrund-weiss" serif:id="Goethe Kopf Hintergrund weiss" d="M260.27,234.737l-1.462,-34.695l7.608,-17.446l6.657,-30.284l-1.635,-14.436l-6.924,-9.53l-13.951,3.216l-13.027,-8.092l9.581,-25.302l9.425,-49.939l16.413,-16.742l11.144,-22.781l91.055,5.434l12.984,28.391l0,192.205l-127.868,0.001Z" style="fill:#fff;"/><path id="Goethe-Kopf" serif:id="Goethe Kopf" d="M303.887,96.281c-0.647,0 -2.36,-1.857 -3.007,-1.857l-1.732,0c-0.213,0.24 -0.175,-0.082 -0.175,0.564c0,0.647 0.517,0.668 0.517,1.314c0,0.648 -0.259,0.658 -0.303,1.014c-2.755,-0.358 -4.193,0.325 -7.406,1.044c-0.05,-0.878 -0.05,-1.651 -0.04,-2.377c-0.23,-0.217 -0.139,-0.178 -0.786,-0.178c-2.069,0 -3.621,3.881 -5.69,3.881c-1.551,0 -2.327,-1.422 -2.327,-2.328c0,-2.78 3.309,-6.713 6.024,-7.942c0.971,-0.419 2.356,-0.59 3.666,-0.851c2.134,-0.165 3.086,-0.109 3.902,0c2.731,0.65 8.133,2.942 8.133,6.466c0,0.647 -0.129,1.25 -0.776,1.25m-5.302,7.026c-1.875,0 -2.199,-1.487 -2.199,-2.327c0,-1.552 0.809,-2.329 2.328,-2.329c1.745,0 1.811,1.585 1.811,2.07c0,1.196 -0.905,2.586 -1.94,2.586m6.524,-16.474c-1.875,-0.969 -4.44,-1.112 -6.516,-1.372c-0.267,0 -0.509,0.26 -2.591,0c-10.163,0.615 -17.461,5.788 -17.461,14.743c0,0.614 -0.179,1.587 0.887,2.459c0.582,0.485 1.828,1.679 2.476,1.679c0.646,0 1.292,-0.518 1.939,-0.518c2.166,0 1.584,6.466 6.466,6.466c1.26,0 1.861,-0.2 2.702,-1.995c-2.837,-0.653 -4.125,-3.145 -4.125,-5.117c0,-1.034 1.649,-3.75 3.362,-3.75c0.648,0 0.648,0.258 0.814,0.22c-0.038,0.426 0.221,0.167 0.221,0.814c0,2.522 -1.322,2.934 1.393,5.811c0.646,0.679 3.553,1.948 4.685,1.948c2.327,0 5.398,-3.216 5.72,-5.543c0.13,-1.035 -1.058,-3.256 0.515,-3.77c0.732,-0.095 3.463,1.942 3.463,2.977c0,1.486 -2.017,3.907 -3.103,5.694c0,0 0.326,0.447 0.616,0.632c0.68,0.433 2.067,0.005 2.067,0.005c0.646,0.005 3.394,-3.098 4.041,-3.098c0.873,0 1.034,0.711 1.034,1.552c0,4.59 -3.103,5.14 -3.103,8.534c0,2.296 3.957,8.631 5.094,8.784c1.283,-1.757 1.113,-3.967 1.113,-5.292c0,-0.646 -1.29,-6.618 -1.293,-8.147c-0.004,-2.122 1.81,-9.311 1.81,-9.958c0,-1.228 -0.967,-5.222 -1.419,-5.772c-2.748,-3.33 -7.574,-6.337 -10.807,-7.986m75.417,-14.681c0,0 -0.101,0.621 -0.748,0.621c-1.551,0 -2.944,-1.212 -4.755,-3.41c-2.263,-2.78 -3.431,-6.375 -5.533,-9.317c-1.228,-1.681 -3.04,-3.232 -4.548,-4.579c-0.462,-0.412 -2.03,-1.416 -2.104,-2.351c-0.041,-0.528 0.07,-0.808 0.279,-0.976c0.417,-0.336 1.273,-0.317 1.92,-0.317c0.061,0 0.146,0.012 0.24,0.029c0.91,0.166 3.248,1.054 4.705,1.429c0.041,0.01 0.076,0.021 0.11,0.032c0.124,0.034 0.246,0.07 0.367,0.107c0.004,0.001 0.006,0.002 0.01,0.003l0,0c6.188,1.938 8.755,9.414 10.019,14.286c0.15,0.58 0.347,1.305 0.347,1.952c0,0.647 -0.025,1.407 -0.309,2.491m-11.367,126.939c-0.002,0.33 -0.133,0.331 -0.133,1.53l0,0.001c0,0.122 -0.002,0.245 -0.009,0.369c-0.003,0.04 -0.004,0.081 -0.007,0.122c-0.006,0.085 -0.012,0.17 -0.02,0.255c-0.005,0.048 -0.01,0.096 -0.016,0.144c-0.009,0.08 -0.019,0.161 -0.03,0.241c-0.006,0.05 -0.013,0.099 -0.021,0.149c-0.012,0.083 -0.026,0.166 -0.04,0.249c-0.008,0.047 -0.016,0.093 -0.025,0.14c-0.018,0.099 -0.038,0.198 -0.059,0.297c-0.006,0.031 -0.012,0.062 -0.019,0.094c-0.028,0.128 -0.058,0.257 -0.089,0.386c-0.011,0.046 -0.024,0.091 -0.035,0.136c-0.022,0.086 -0.044,0.172 -0.068,0.258c-0.015,0.056 -0.031,0.112 -0.047,0.168c-0.022,0.076 -0.043,0.152 -0.066,0.229c-0.018,0.058 -0.036,0.118 -0.054,0.177c-0.023,0.074 -0.046,0.147 -0.07,0.221c-0.019,0.06 -0.039,0.12 -0.059,0.18c-0.024,0.073 -0.049,0.146 -0.074,0.219c-0.021,0.06 -0.041,0.12 -0.062,0.18c-0.03,0.085 -0.061,0.17 -0.093,0.254c-0.04,0.11 -0.081,0.219 -0.123,0.329c-0.022,0.057 -0.044,0.115 -0.066,0.172c-0.031,0.077 -0.062,0.153 -0.093,0.23c-0.02,0.051 -0.041,0.102 -0.062,0.153c-0.032,0.079 -0.065,0.158 -0.098,0.237c-0.02,0.047 -0.04,0.094 -0.06,0.14c-0.035,0.082 -0.07,0.165 -0.106,0.246c-0.016,0.037 -0.032,0.074 -0.049,0.11c-0.09,0.206 -0.183,0.411 -0.277,0.612c0,0.001 -0.001,0.001 -0.001,0.002c-0.694,1.487 -1.459,2.856 -2.076,3.921c-1.456,2.522 -9.843,15.421 -15.274,15.421c-3.072,0 -7.113,-4.785 -7.113,-6.854c0,-1.52 2.133,-2.195 3.458,-2.55c1.326,-0.355 2.664,-0.769 3.86,-1.286c6.413,-2.895 11.16,-9.191 14.704,-14.969c0.082,-0.135 0.163,-0.269 0.244,-0.402c0.054,-0.088 0.107,-0.176 0.16,-0.263c0.826,-1.373 1.526,-4.704 2.241,-5.114c0.412,-0.237 0.628,-0.373 1.167,-0.355c0.536,0.017 0.623,0.774 0.625,1.415c0.001,0.291 -0.016,0.559 -0.016,0.722c0.037,1.371 0.053,1.827 0.051,2.084m-35.45,3.569c-0.099,-0.128 -0.186,-0.247 -0.259,-0.354c-0.206,-0.303 -0.406,-0.607 -0.599,-0.913c-1.06,-1.681 -1.938,-3.41 -2.773,-5.033c-0.231,-0.449 -0.459,-0.891 -0.685,-1.32c-0.158,-0.297 -0.335,-0.625 -0.52,-0.968c-0.061,-0.114 -0.123,-0.23 -0.186,-0.346c-0.125,-0.233 -0.251,-0.469 -0.374,-0.704c-0.062,-0.117 -0.123,-0.234 -0.183,-0.349c-0.538,-1.04 -0.982,-1.985 -0.982,-2.349c0,-0.242 0.069,-0.475 0.182,-0.688c0.056,-0.107 0.123,-0.209 0.198,-0.305c0.237,-0.306 0.55,-0.552 0.835,-0.708c0.164,-0.09 0.319,-0.151 0.445,-0.173c0.259,-0.032 6.337,-1.026 8.504,-1.963c1.54,-0.667 3.157,-1.414 4.801,-2.242c0.164,-0.083 0.329,-0.167 0.494,-0.251c0.495,-0.254 0.991,-0.515 1.489,-0.783c0.498,-0.268 0.996,-0.544 1.494,-0.828c0.332,-0.188 0.664,-0.38 0.995,-0.576c0.166,-0.098 0.331,-0.196 0.496,-0.296c0.496,-0.298 0.99,-0.604 1.481,-0.917c2.945,-1.88 5.78,-4.033 8.226,-6.468c0.272,-0.271 0.539,-0.545 0.801,-0.822c0.524,-0.555 1.027,-1.124 1.506,-1.708c0.48,-0.583 0.935,-1.18 1.364,-1.792c0.321,-0.459 0.628,-0.925 0.918,-1.4c0.967,-1.582 1.752,-3.254 2.308,-5.017c0.028,-0.093 0.061,-0.184 0.098,-0.273c0.112,-0.268 0.265,-0.518 0.465,-0.755c0.199,-0.236 0.446,-0.458 0.745,-0.667c0.099,-0.07 0.205,-0.139 0.316,-0.206c0.05,0.018 0.099,0.035 0.145,0.051c0.092,0.032 0.177,0.063 0.255,0.093c0.039,0.015 0.077,0.03 0.112,0.045c0.429,0.185 0.628,0.415 0.796,1.206c0.233,1.091 0.471,2.402 0.703,3.803c0.428,2.587 0.836,5.483 1.147,7.878c0.026,0.2 0.051,0.396 0.076,0.588c0.208,1.634 0.366,2.982 0.445,3.757c0.009,0.091 0.017,0.174 0.024,0.249c0.004,0.038 0.007,0.073 0.01,0.106c0.015,0.166 0.023,0.278 0.023,0.328c0,2.789 -2.26,7.653 -3.715,10.222c-0.097,0.171 -0.191,0.332 -0.28,0.482c-0.477,0.792 -1.061,1.703 -1.72,2.663c-0.329,0.48 -0.677,0.971 -1.039,1.465c-0.633,0.865 -1.309,1.739 -2.007,2.573c-0.398,0.477 -0.803,0.94 -1.21,1.382c-0.204,0.221 -0.408,0.436 -0.612,0.644c-0.205,0.209 -0.409,0.411 -0.613,0.605c-0.102,0.097 -0.204,0.192 -0.305,0.286c-0.204,0.186 -0.406,0.364 -0.607,0.532c-0.202,0.169 -0.402,0.327 -0.6,0.476c-0.075,0.056 -0.294,0.208 -0.627,0.432c-0.332,0.224 -0.779,0.519 -1.31,0.862c-0.133,0.086 -0.271,0.175 -0.414,0.266c-0.715,0.456 -1.55,0.977 -2.449,1.516c-0.18,0.108 -0.363,0.217 -0.547,0.325c-1.107,0.653 -2.289,1.317 -3.448,1.912c-1.158,0.595 -2.293,1.12 -3.305,1.494c-0.844,0.311 -1.602,0.518 -2.219,0.572c-2.627,0.233 -6.825,-3.724 -8.309,-5.639m-11.863,24.262c-5.843,0 -8.907,-9.283 -9.164,-12.978c0,-0.004 0,-0.007 0,-0.011c-0.009,-0.12 0.031,-0.234 0.028,-0.342c-0.001,-0.038 0.043,-0.075 0.043,-0.118l0,0l0,-0.001c0,-2.942 1.281,-4.913 3.964,-4.913c0.646,0 4.892,1.551 5.538,1.551c2.425,0 3.093,-2.651 3.093,-4.009c0,-0.506 -0.343,-1.88 -0.473,-2.765c-0.037,-0.246 -0.061,-0.457 -0.053,-0.597c0.097,-1.729 1.102,-3.241 2.251,-3.233c1.987,0.552 2.514,4.59 2.514,5.948l0,0.001c0,0.064 -0.058,0.133 -0.061,0.205c-0.001,0.018 -0.03,0.037 -0.031,0.056c-0.003,0.059 -0.021,0.12 -0.026,0.184c-0.001,0.017 -0.01,0.033 -0.011,0.05c-0.171,2.023 -1.284,6.23 -3.161,7.994l-0.002,0c-0.591,0.585 -1.257,0.947 -1.994,0.947c-0.647,0 -1.55,-0.643 -2.197,-0.643c-1.551,0 -4.785,3.233 -4.785,4.267c0,2.005 3.682,2.334 6.347,2.706c1.379,0.194 3.571,0.013 3.571,0.013c2.229,-1.746 1.981,-4.929 3.492,-7.314c0.138,-0.249 0.291,-0.448 0.461,-0.632c0.149,-0.178 0.311,-0.314 0.49,-0.478c0.513,-0.233 1.017,-0.309 2.025,-0.55l0.872,0c0.097,0 3.175,4.804 3.175,6.033c0,5.626 -13.482,8.629 -15.906,8.629m-13.851,-2.356c-1.391,0 -5.362,-1.955 -6.525,-2.536c-3.848,-1.993 -6.991,-4.829 -9.589,-8.086l-0.002,0c-0.011,-0.015 -0.023,-0.031 -0.034,-0.046c-4.628,-5.821 -7.514,-12.987 -9.53,-19.153c-0.016,-0.05 -0.031,-0.098 -0.048,-0.147c-0.11,-0.338 -0.217,-0.673 -0.322,-1.004c-0.039,-0.122 -0.077,-0.242 -0.115,-0.363c-0.091,-0.291 -0.18,-0.579 -0.268,-0.864c-0.025,-0.081 -0.052,-0.165 -0.076,-0.246c0,0 -0.093,-0.388 -0.102,-0.823c-0.01,-0.434 0.063,-0.915 0.394,-1.1c0.406,-0.227 1.191,-0.007 1.191,-0.007c5.537,7.269 10.76,15.734 18.519,19.451c1.487,0.712 3.301,1.481 4.432,2.613c1.552,1.583 5.307,7.656 5.307,9.983c0,2.264 -2.522,2.328 -3.232,2.328m-17.992,2.495c-0.235,0.227 -0.113,0.35 -0.76,0.35c-0.646,0 -2.494,0.145 -4.076,-1.41c-0.546,-0.536 -4.17,-5.875 -8.144,-12.057l-0.002,0c-0.035,-0.055 -0.07,-0.111 -0.105,-0.166c-4.646,-7.233 -9.735,-15.564 -10.939,-18.712c-0.002,-0.003 -0.002,-0.005 -0.003,-0.008c-0.037,-0.095 -0.069,-0.185 -0.099,-0.27c-0.008,-0.026 -0.017,-0.051 -0.025,-0.076c-0.02,-0.063 -0.038,-0.122 -0.054,-0.179c-0.009,-0.031 -0.018,-0.062 -0.025,-0.091c-0.013,-0.051 -0.023,-0.097 -0.031,-0.142c-0.005,-0.025 -0.012,-0.053 -0.016,-0.076c-0.009,-0.062 -0.059,-0.118 -0.06,-0.168c0,-0.002 -0.045,-0.006 -0.045,-0.008l0,-0.001l0,0c0,-0.647 0.691,-1.552 1.338,-1.552c1.551,0 4.431,5.298 5.079,6.333c0.517,0.84 5.637,8.214 6.996,10.542c0.031,0.053 0.069,0.108 0.102,0.162c0.023,0.039 0.05,0.079 0.074,0.119c3.011,4.986 10.81,14.96 10.804,15.594c0,0 0.501,1.324 -0.009,1.816m-83.19,-13.117c-12.999,9.571 -20.378,16.36 -29.383,23.953l210.708,0.337l0,-229.528l-111.07,0c0,0 -5.325,2.722 -7.169,4.97c-1.93,2.352 -5.322,4.677 -6.731,7.491c-1.27,2.537 -0.781,7.016 -2.939,8.857c-2.667,2.274 -8.234,3.313 -10.744,6.443c-2.51,3.13 -4.644,6.632 -4.582,11.604c0.082,6.623 -4.489,4.878 -6.648,10.292c-0.466,1.17 -0.335,4.387 -0.335,4.387c-0.019,5.969 1.572,10.228 2.328,15.842c0.74,5.499 -11.593,5.151 -1.035,26.381c-7.657,11.465 -8.363,33.494 10.086,33.494c7.361,0 13.046,-6.048 14.544,-5.969c1.317,2.113 2.833,4.116 4.337,6.098c-0.166,2.135 -20.985,13.248 -20.691,21.726c0.155,4.453 13.148,22.463 13.449,26.123l0.299,0.809c-20.857,10.945 -41.041,17.311 -54.424,26.69m44.44,-96.172c2.909,0 5.43,-4.655 5.819,-4.655c0.647,0 1.841,0.78 2.96,1.085c0,0 0.205,0.492 0,1.34c-0.182,0.755 -5.588,7.436 -6.525,8.07c-0.419,0.283 -1.267,0.714 -2.075,1.037c-0.97,0.42 -2.378,0.624 -3.024,0.624c-3.103,0 -5.173,-4.267 -5.173,-6.208c0,-2.23 0.885,-5.355 1.87,-7.479c0.717,-0.021 1.615,-0.083 2.462,0.32c1.011,1.395 0.006,4.206 2.052,5.52c0.493,0.09 0.987,0.346 1.634,0.346m9.944,-63.492c0,-0.161 0.004,-0.315 0.015,-0.464c0.009,-0.149 0.025,-0.294 0.046,-0.44c0.042,-0.29 0.106,-0.581 0.197,-0.906c0.175,-0.623 1.612,-3.379 2.679,-4.737c0.274,-0.348 0.557,-0.693 0.843,-1.036c0.029,-0.034 0.057,-0.068 0.086,-0.102c3.166,-3.776 7.056,-7.285 11.324,-10.128l0.004,0c1.797,-1.221 3.659,-2.346 5.565,-3.348c1.132,-0.582 2.949,-0.488 4.145,-1.038c0.647,-0.291 5.355,-3.438 5.355,-4.957c0,-0.647 -1.205,-1.688 -1.958,-1.942c0,0 -7.682,0.342 -8.349,0.222c-0.117,-0.104 -0.297,-0.351 -0.297,-0.997c0,-1.228 1.635,-1.906 2.363,-2.466c2.004,-1.543 7.206,-3.741 9.276,-3.741c0.647,0 1.681,0.258 2.328,0.258c0.646,0 3.72,1.312 5.11,2.154c1.164,0.71 2.404,1.864 3.858,2.414c1.908,0.744 5.515,1.381 6.161,1.381c1.131,0 7.921,-1.293 8.018,-1.293c2.651,0 8.509,3.771 10.352,6.26c0.614,0.84 0.898,2.664 0.898,3.31c0,0.647 -0.258,2.457 -0.258,3.103c0,0.244 -0.067,0.518 -0.18,0.798c-0.368,0.978 -1.253,1.937 -2.078,2.219c-0.005,0.001 -0.01,0.003 -0.015,0.005c-0.055,0.018 -0.11,0.033 -0.165,0.045c-0.027,0.006 -0.054,0.013 -0.081,0.018c-0.031,0.004 -0.061,0.006 -0.091,0.008c-0.035,0.004 -0.071,0.011 -0.105,0.011c-1.424,0 -3.104,-5.507 -3.556,-5.992c-2.361,-2.651 -9.732,-6.422 -13.515,-6.422c-0.323,0 -2.715,0.161 -2.715,1.551c0,2.91 7.5,4.074 7.5,6.983c0,0.938 -1.552,1.552 -2.069,1.552c-1.778,0 -6.319,-3.759 -7.16,-4.082c-2.522,-1.002 -5.409,-1.61 -7.977,-2.126c-3.124,-0.073 -3.613,0.001 -3.855,-0.001c-4.446,1.162 -8.085,5.2 -10.969,9.259c-0.727,1.024 -0.687,3.417 -1.333,3.417c-0.647,0 -3.232,-0.777 -3.88,-0.777c-5.495,0 -7.597,3.816 -7.597,8.665c0,1.358 -0.677,2.896 -1.582,3.963c-0.679,0.808 -2.589,1.856 -3.235,1.856c-1.875,0 -3.103,-1.422 -3.103,-2.457Zm70.657,74.126c2.779,1.083 3.828,1.882 3.828,4.5c0,2.07 -1.617,3.751 -3.491,3.751c-0.646,0 -0.669,0.002 -0.909,-0.281c-0.296,-0.349 0.022,-1.175 0.022,-1.175c-0.018,-0.646 1.024,-1.778 1.016,-2.424c-0.016,-1.178 -0.258,-1.926 -0.466,-4.371m15.725,-27.053c0.035,1.026 -1.423,2.198 -2.069,2.198c-1.196,0 -2.039,-1.536 -2.069,-2.586c-0.016,-0.517 0.744,-2.07 1.681,-2.07c1.487,0 2.423,1.424 2.457,2.458m3.102,-4.118c-0.294,0.329 -0.257,0.625 -0.903,0.625c-0.388,0 -3.104,-1.292 -4.656,-1.292c-2.716,0 -6.207,2.068 -6.983,2.068c-0.646,0 -1.164,-0.776 -1.164,-1.422c0,-3.104 4.914,-2.328 4.914,-4.656c0,-1.195 3.136,-1.68 3.233,-1.68c0.647,0 1.94,-0.517 2.586,-0.517c0.647,0 1.244,0.485 2.084,0.582c2.199,0.258 6.322,2.391 6.322,5.237c0,0.646 -0.273,1.927 -0.885,3.032c-1.146,-1.072 -2.431,-2.624 -3.944,-3.826l-0.692,0c-0.206,0 -0.427,-0.182 -0.427,0.465c0,0.647 0.244,0.788 0.515,1.384m-0.097,-42.455c0.129,1.002 0.357,2.345 0.357,2.991c0,0.647 -1.293,7.889 -1.293,8.536c0,6.692 7.5,11.186 7.5,17.07c0,1.681 -0.853,4.592 -2.168,5.686c-0.9,-0.193 -2.832,-1.753 -3.445,-2.012c-2.005,-0.938 -6.025,-1.864 -6.672,-1.864c-6.401,0 -14.427,4.136 -17.95,7.466c-1.746,1.648 -2.094,6.662 -2.094,8.57c0,4.623 2.329,8.891 2.329,13.32c0,0.646 -0.785,9.098 -0.874,9.322c0.095,0.483 0.097,1.271 0.161,2.068c-0.068,0.28 -0.064,-0.01 -0.064,0.636c0,0.647 1.294,5.173 1.294,5.82c0,3.104 -1.908,5.561 -5.173,5.561c-1.552,0 -3.362,-1.293 -3.362,-2.845c0,-1.649 -1.296,-4.287 -2.265,-4.868c-0.421,-0.259 -0.709,-0.305 -1.356,-0.305c-0.647,0 -2.903,2.823 -4.52,3.879c-1.328,-0.694 -0.868,-2.268 -2.194,-2.268c-1.81,0 -1.821,2.107 -1.821,2.268c0,2.263 2.91,5.174 5.302,5.174c0.646,0 4.157,-1.621 4.803,-1.621c1.941,0 3.049,3.539 3.373,3.863c0.581,0.614 1.523,0.995 2.169,0.995c0.647,0 2.198,-1.729 2.845,-1.729c2.167,0 3.368,0.454 5.999,0.957c1.08,0.207 2.249,0.337 3.136,-1.175c0.558,-0.952 0.474,-1.035 1.006,-1.736c0.644,-0.552 1.015,-0.996 1.791,-1.287c0.809,-0.323 3.241,-3.408 3.241,-4.475c0,-5.27 -3.838,-3.621 -3.838,-9.408l0,-3.944c0,-0.647 -1.593,-7.209 -1.593,-7.856c0,-2.296 4.116,-0.162 4.116,-2.846c0,-1.034 -4.407,-3.459 -4.407,-4.914c0,-1.842 4.126,-3.679 4.819,-3.873c0.678,0.888 0.346,0.576 0.346,1.417c0,2.456 0.956,5.308 4.482,6.372c0.293,0.088 1.464,0.223 2.111,0.223c0.646,0 2.085,-0.619 3.023,-1.363c1.551,-1.228 2.701,-4.528 2.35,-6.311c0,0 -0.201,-0.345 0.445,-0.345c1.552,0 3.362,2.038 3.362,2.717c0,1.971 -3.205,6.366 -5.016,6.754c-1.81,0.388 -3.597,0.606 -5.346,1.335c-0.482,0.656 0,0.907 0,0.907c1.219,0.755 2.086,0.54 2.086,1.608c0,0.646 -1.293,1.81 -1.293,2.457c0,1.907 1.39,2.328 2.069,2.328c2.263,0 7.738,-3.416 8.966,-6.132c0.55,-1.196 0.344,-3.697 0.344,-4.343c0,-1.1 1.362,-3.308 1.695,-3.477c0.932,-0.473 2.472,0.664 2.86,2.151c0.324,1.293 0.618,3.783 0.618,4.429c0,4.721 -2.554,8.206 -2.327,12.926c0.225,4.138 -0.259,6.99 -0.259,7.636c0,0.647 -0.652,3.561 -1.136,5.339c-0.194,0.712 -9.436,18.461 -12.992,18.461l-3.071,0c-0.647,0 -0.705,-0.46 -1.061,-0.816c-0.42,-0.42 -0.718,-1.386 -0.718,-2.162c0,-0.776 0.233,-1.546 0.006,-2.29c-0.258,-0.808 -1.201,-2.238 -1.848,-2.238c-2.651,0 -4.202,2.069 -5.69,2.069c-1.455,0 -4.073,-3.103 -6.724,-3.103c-3.265,0 -4.041,4.138 -6.337,4.138c-2.812,0 -3.103,-4.396 -6.724,-4.396c-3.071,0 -2.683,3.103 -6.336,3.103c-0.647,0 -2.958,-1.701 -3.605,-1.701c-2.587,0 -2.917,3.943 -3.113,4.401c0.455,0.191 0.639,0.936 1.286,0.936c0.646,0 2.657,-1.888 3.304,-1.888c0.646,0 3.736,3.106 4.758,3.136c1.163,0.032 5.399,-1.96 6.045,-1.96c0.647,0 3.44,1.344 4.086,1.344c2.813,0 5.407,-2.2 7.8,-2.2c1.907,0 5.173,1.326 5.173,3.363c0,3.718 -3.653,5.173 -6.078,5.173c-0.647,0 -7.63,-1.81 -8.277,-1.81c-1.358,0 -7.112,0.355 -7.112,2.586c0,1.552 3.848,2.62 4.527,2.587c1.392,-0.072 5.948,-1.035 6.594,-1.035c3.621,0 9.57,0.825 9.57,6.16c0,6.109 -6.304,8.487 -10.508,8.487l-10.085,0c-6.661,0 -23.846,-17.052 -25.358,-18.334c0,0 -0.508,-0.686 -1.081,-1.54c0.178,0.972 0.335,1.926 0.335,2.213c0,0.647 1.408,3.149 2.12,4.604c1.584,3.2 3.671,6.736 5.933,9.549c2.651,3.33 7.922,7.571 11.446,9.866c4.656,3.007 10.729,4.604 15.546,4.636c0.775,0 1.718,0.201 2.82,0.54c0.385,0.48 0.671,0.948 0.671,1.595c0,0.118 -0.012,0.247 -0.035,0.386c-0.709,4.301 -12.121,18.106 -16.13,18.106c-2.231,0 -5.118,-2.557 -7.07,-3.826c-6.074,-3.948 -12.341,-10.85 -15.994,-16.928c-1.031,-1.734 -2.742,-4.574 -4.119,-7.373c-0.162,-0.329 -0.32,-0.658 -0.471,-0.984c-0.378,-0.816 -0.717,-1.617 -0.991,-2.374c-0.054,-0.151 -0.107,-0.301 -0.156,-0.448c-0.345,-1.033 -0.553,-1.968 -0.553,-2.724c0,-0.122 0.008,-0.279 0.023,-0.46c0.01,-0.12 0.022,-0.25 0.037,-0.386c0.062,-0.614 0.155,-1.351 0.187,-1.841c0.007,-0.11 0.012,-0.206 0.012,-0.287c0,-0.081 0.036,-0.273 0.1,-0.549c0.111,-0.481 0.306,-1.219 0.536,-2.062c0.131,-0.482 0.274,-0.999 0.418,-1.522c0.073,-0.262 0.146,-0.526 0.218,-0.788c0.254,-0.916 0.5,-1.811 0.691,-2.536c0.082,-0.31 0.154,-0.59 0.211,-0.826c0.019,-0.079 0.037,-0.153 0.053,-0.222c0.064,-0.275 0.1,-0.467 0.1,-0.548c0,-0.019 0.003,-0.044 0.007,-0.074c0.002,-0.01 0.004,-0.022 0.007,-0.033c0.003,-0.022 0.008,-0.044 0.013,-0.07c0.004,-0.015 0.008,-0.032 0.012,-0.048c0.007,-0.027 0.013,-0.053 0.021,-0.083c0.005,-0.018 0.011,-0.039 0.017,-0.059c0.008,-0.031 0.017,-0.063 0.028,-0.097c0.006,-0.022 0.013,-0.045 0.02,-0.068c0.011,-0.036 0.023,-0.074 0.035,-0.113c0.008,-0.024 0.016,-0.049 0.024,-0.074c0.013,-0.042 0.027,-0.086 0.042,-0.131c0.008,-0.025 0.017,-0.05 0.025,-0.076c0.017,-0.049 0.034,-0.1 0.051,-0.152c0.009,-0.025 0.017,-0.049 0.025,-0.074c0.02,-0.058 0.041,-0.117 0.062,-0.178c0.007,-0.022 0.015,-0.042 0.022,-0.064c0.025,-0.072 0.051,-0.145 0.078,-0.22c0.004,-0.012 0.008,-0.024 0.013,-0.037c0.664,-1.871 1.781,-4.739 2.032,-5.702c-0.04,-0.105 -0.063,-0.19 -0.063,-0.249c0,-0.646 -1.381,-2.927 -1.995,-4.478c-0.388,-0.97 -0.874,-1.823 -1.298,-3.118c-0.24,-0.73 -2.48,-7.796 -2.934,-11.411c-0.219,-1.751 0.84,-5.15 -0.614,-5.564c-1.345,0.47 -2.373,3.879 -4.151,3.879c-0.646,0 -2.883,-1.085 -3.142,-1.44c-0.452,-0.582 -1.123,-1.737 -1.317,-2.804c-0.323,-1.778 -0.584,-5.066 -0.584,-5.712c0,-6.919 5.173,-3.016 5.69,-10.349l-0.776,-24.438c0,-5.853 4.369,-10.442 6.017,-16.973c0.291,-1.229 -0.069,-3.589 -0.069,-4.236c0,-14.031 7.104,-24.279 21.329,-25.282c3.33,-0.226 9.707,-1.099 10.354,-1.099c6.983,0 11.056,4.138 17.457,4.138c0.647,0 10.992,-1.034 11.639,-1.034c4.202,0 10.311,5.381 11.022,10.457m-6.68,-21.137c0.915,-3.827 2.048,-6.13 5.01,-8.361c0.877,-0.661 7.62,-3.978 9.657,-3.978c0.647,0 1.021,0.105 1.601,0.527c0.301,0.286 0.37,0.431 0.356,0.758c-0.014,0.297 -0.077,0.505 -0.356,0.677c-2.595,0.831 -8.71,9.051 -9.231,10.582c-0.528,1.555 -1.034,3.749 -1.034,4.396c0,1.066 0.485,2.198 1.422,2.198c0.647,0 2.851,-0.966 4.113,-1.225c0.068,-0.015 0.141,-0.029 0.212,-0.044c0.005,-0.001 0.009,-0.008 0.014,-0.009c0.075,-0.015 0.151,-0.051 0.229,-0.051l0,0c0.943,-0.241 2.078,-0.379 3.143,-0.55c0.006,-0.001 0.012,0.001 0.018,0c0.247,-0.039 0.489,-0.076 0.724,-0.112c0.027,-0.004 0.054,-0.007 0.081,-0.012c0.068,-0.01 0.136,-0.02 0.204,-0.03c0.035,-0.005 0.069,-0.01 0.104,-0.015c0.099,-0.015 0.196,-0.029 0.291,-0.043c0.049,-0.008 0.098,-0.014 0.146,-0.021c0.046,-0.007 0.092,-0.014 0.138,-0.02c0.061,-0.009 0.121,-0.017 0.18,-0.025c0.05,-0.007 0.098,-0.014 0.146,-0.02c0.062,-0.009 0.123,-0.017 0.183,-0.025c0.016,-0.002 0.034,-0.005 0.051,-0.007l0,0c0.557,-0.073 0.972,-0.117 1.144,-0.117c4.139,0 10.992,3.814 10.992,7.758c0,0.647 -0.024,1.536 -0.577,2.305c-0.53,0.739 -1.91,-1.328 -2.7,-1.73c-0.43,-0.219 -0.994,-0.424 -1.567,-0.597c-0.022,-0.007 -0.045,-0.014 -0.067,-0.02c-0.077,-0.023 -0.153,-0.045 -0.23,-0.067c-0.01,-0.003 -0.021,-0.006 -0.032,-0.009c-0.086,-0.024 -0.172,-0.047 -0.257,-0.069c-0.021,-0.005 -0.041,-0.011 -0.062,-0.016c-0.072,-0.019 -0.143,-0.037 -0.214,-0.054c-0.014,-0.003 -0.03,-0.007 -0.045,-0.011c-0.082,-0.019 -0.163,-0.038 -0.242,-0.056c-0.017,-0.004 -0.034,-0.007 -0.051,-0.011c-0.067,-0.015 -0.132,-0.029 -0.196,-0.042c-0.016,-0.003 -0.031,-0.006 -0.046,-0.009c-0.075,-0.015 -0.148,-0.029 -0.217,-0.042c-0.012,-0.002 -0.023,-0.004 -0.034,-0.006c-0.059,-0.01 -0.116,-0.02 -0.171,-0.028c-0.015,-0.003 -0.03,-0.005 -0.045,-0.007c-0.062,-0.01 -0.121,-0.018 -0.176,-0.025c-0.006,0 -0.011,-0.001 -0.016,-0.002c-0.05,-0.005 -0.095,-0.01 -0.138,-0.013c-0.012,-0.001 -0.023,-0.002 -0.034,-0.003c-0.046,-0.003 -0.088,-0.005 -0.124,-0.005c-6.272,0 -7.016,4.139 -11.38,4.139c-0.606,0 -1.156,-0.011 -1.687,-0.104c-0.107,-0.018 -0.212,-0.04 -0.317,-0.065c-0.105,-0.026 -0.21,-0.055 -0.315,-0.088c-0.052,-0.017 -0.104,-0.035 -0.157,-0.054c-0.104,-0.039 -0.209,-0.081 -0.314,-0.129c-0.367,-0.168 -0.739,-0.4 -1.127,-0.72c-0.445,-0.365 -0.912,-0.845 -1.421,-1.475c-0.711,-0.867 -0.742,-2.189 -0.965,-3.487c-0.102,-0.59 -0.243,-1.175 -0.506,-1.711c-0.42,-0.873 -1.761,-1.526 -2.408,-2.301c-0.614,-0.744 -1.285,-1.859 -1.577,-2.894c-0.194,-0.744 -0.379,-1.752 -0.123,-2.825" style="fill:#1e1e1f;fill-rule:nonzero;"/><path id="Rahmen" d="M0.105,16.231c-0.095,-10.674 5.055,-16.228 15.897,-16.224l368.775,-0.007c9.97,-0.038 14.823,5.262 14.793,15.655l-0.018,215.89c0.052,10.062 -4.827,15.558 -15.518,15.671l-368.126,-0.016c-10.868,-0.143 -15.834,-5.668 -15.908,-15.65l0.105,-215.319Zm380.801,212.19l0,-209.767l-361.598,0.029l0,209.738l361.598,0Z" style="fill:#1e1e1f;"/></g><defs><linearGradient id="_Linear1" x1="0" y1="0" x2="1" y2="0" gradientUnits="userSpaceOnUse" gradientTransform="matrix(1.3574e-14,-221.68,221.68,1.3574e-14,199.947,235.38)"><stop offset="0" style="stop-color:#50f3bf;stop-opacity:1"/><stop offset="1" style="stop-color:#38aad9;stop-opacity:1"/></linearGradient></defs></svg>